<svg aria-hidden="true" style="position: absolute; width: 0; height: 0; overflow: hidden;" version="1.1" xmlns="http://www.w3.org/2000/svg" xmlns:xlink="http://www.w3.org/1999/xlink">
<defs>
<symbol id="icon-remove-user" viewBox="0 0 20 20">
<path d="M15.989 19.129c0-2.246-2.187-3.389-4.317-4.307-2.123-0.914-2.801-1.684-2.801-3.334 0-0.989 0.648-0.667 0.932-2.481 0.12-0.752 0.692-0.012 0.802-1.729 0-0.684-0.313-0.854-0.313-0.854s0.159-1.013 0.221-1.793c0.064-0.817-0.398-2.56-2.301-3.095-0.332-0.341-0.557-0.882 0.467-1.424-2.24-0.104-2.761 1.068-3.954 1.93-1.015 0.756-1.289 1.953-1.24 2.59 0.065 0.78 0.223 1.793 0.223 1.793s-0.314 0.17-0.314 0.854c0.11 1.718 0.684 0.977 0.803 1.729 0.284 1.814 0.933 1.492 0.933 2.481 0 1.65-0.212 2.21-2.336 3.124-2.131 0.917-2.794 2.387-2.783 4.516 0.003 0.637-0.011 0.871-0.011 0.871h16c0 0-0.011-0.234-0.011-0.871zM16 10.039l-2.299-2.398-1.061 1.061 2.399 2.298-2.398 2.298 1.061 1.061 2.298-2.398 2.298 2.398 1.061-1.061-2.398-2.298 2.397-2.298-1.061-1.061-2.297 2.398z"></path>
</symbol>
<symbol id="icon-archive" viewBox="0 0 20 20">
<path d="M13.981 2h-7.963c0 0-0.996 0-0.996 1h9.955c0-1-0.996-1-0.996-1zM16.968 5c0-1-0.995-1-0.995-1h-11.946c0 0-0.995 0-0.995 1v1h13.936v-1zM18.958 6c-0.588-0.592-0.588-0.592-0.588-0.592v1.592h-16.74v-1.592c0 0 0 0-0.589 0.592s-1.011 0.75-0.774 2c0.236 1.246 1.379 8.076 1.549 9 0.186 1.014 1.217 1 1.217 1h13.936c0 0 1.030 0.014 1.217-1 0.17-0.924 1.312-7.754 1.549-9 0.235-1.25-0.187-1.408-0.777-2zM14 11.997c0 0.554-0.449 1.003-1.003 1.003h-5.994c-0.554 0-1.003-0.449-1.003-1.003v-1.997h1v2h6v-2h1v1.997z"></path>
</symbol>
<symbol id="icon-area-graph" viewBox="0 0 20 20">
<path d="M20 2v16h-19.68c-0.318 0-0.416-0.209-0.216-0.465l4.469-5.748c0.199-0.256 0.553-0.283 0.789-0.062l1.419 1.334c0.235 0.221 0.572 0.178 0.747-0.096l3.047-4.74c0.175-0.273 0.509-0.312 0.741-0.090l2.171 2.096c0.232 0.225 0.559 0.18 0.724-0.1l5.133-7.785c0.166-0.282 0.406-0.344 0.656-0.344z"></path>
</symbol>
<symbol id="icon-bar-graph" viewBox="0 0 20 20">
<path d="M17 1h-2c-0.552 0-1 0.447-1 1v16.992h4v-16.992c0-0.553-0.447-1-1-1zM11 7h-2c-0.552 0-1 0.447-1 1v10.992h4v-10.992c0-0.553-0.447-1-1-1zM5 13h-2c-0.552 0-1 0.447-1 1v4.992h4v-4.992c0-0.553-0.447-1-1-1z"></path>
</symbol>
<symbol id="icon-bell" viewBox="0 0 20 20">
<path d="M14.65 8.512c-2.28-4.907-3.466-6.771-7.191-6.693-1.327 0.027-1.009-0.962-2.021-0.587-1.010 0.375-0.143 0.924-1.177 1.773-2.902 2.383-2.635 4.587-1.289 9.84 0.567 2.213-1.367 2.321-0.602 4.465 0.559 1.564 4.679 2.219 9.025 0.607s7.086-4.814 6.527-6.378c-0.765-2.145-2.311-0.961-3.272-3.027zM10.924 16.595c-3.882 1.44-7.072 0.594-7.207 0.217-0.232-0.65 1.253-2.816 5.691-4.463s6.915-1.036 7.174-0.311c0.153 0.429-1.775 3.116-5.658 4.557zM9.676 13.101c-2.029 0.753-3.439 1.614-4.353 2.389 0.643 0.584 1.847 0.726 3.046 0.281 1.527-0.565 2.466-1.866 2.095-2.904-0.005-0.013-0.011-0.023-0.016-0.036-0.251 0.082-0.508 0.171-0.772 0.27z"></path>
</symbol>
<symbol id="icon-box" viewBox="0 0 20 20">
<path d="M18.399 2h-16.799c-0.332 0-0.6 0.267-0.6 0.6v2.4h18v-2.4c0-0.333-0.27-0.6-0.601-0.6zM2 16.6c0 0.77 0.629 1.4 1.399 1.4h13.2c0.77 0 1.4-0.631 1.4-1.4v-10.6h-15.999v10.6zM7 8h6v2h-6v-2z"></path>
</symbol>
<symbol id="icon-calendar" viewBox="0 0 20 20">
<path d="M17 3h-1v2h-3v-2h-6v2h-3v-2h-1c-1.101 0-2 0.9-2 2v12c0 1.1 0.899 2 2 2h14c1.1 0 2-0.9 2-2v-12c0-1.1-0.9-2-2-2zM17 17h-14v-8h14v8zM6.5 1h-2v3.5h2v-3.5zM15.5 1h-2v3.5h2v-3.5z"></path>
</symbol>
<symbol id="icon-cog" viewBox="0 0 20 20">
<path d="M16.783 10c0-1.049 0.646-1.875 1.617-2.443-0.176-0.584-0.407-1.145-0.692-1.672-1.089 0.285-1.97-0.141-2.711-0.883-0.741-0.74-0.968-1.621-0.683-2.711-0.527-0.285-1.088-0.518-1.672-0.691-0.568 0.97-1.595 1.615-2.642 1.615-1.048 0-2.074-0.645-2.643-1.615-0.585 0.173-1.144 0.406-1.671 0.691 0.285 1.090 0.059 1.971-0.684 2.711-0.74 0.742-1.621 1.168-2.711 0.883-0.285 0.527-0.517 1.088-0.691 1.672 0.97 0.568 1.615 1.394 1.615 2.443 0 1.047-0.645 2.074-1.615 2.643 0.175 0.584 0.406 1.144 0.691 1.672 1.090-0.285 1.971-0.059 2.711 0.682s0.969 1.623 0.684 2.711c0.527 0.285 1.087 0.518 1.672 0.693 0.568-0.973 1.595-1.617 2.643-1.617 1.047 0 2.074 0.645 2.643 1.617 0.584-0.176 1.144-0.408 1.672-0.693-0.285-1.088-0.059-1.969 0.683-2.711 0.741-0.74 1.622-1.166 2.711-0.883 0.285-0.527 0.517-1.086 0.692-1.672-0.973-0.569-1.619-1.395-1.619-2.442zM10 13.652c-2.018 0-3.653-1.635-3.653-3.652 0-2.018 1.636-3.654 3.653-3.654s3.652 1.637 3.652 3.654c0 2.018-1.634 3.652-3.652 3.652z"></path>
</symbol>
<symbol id="icon-gauge" viewBox="0 0 20 20">
<path d="M8.127 13.6c-0.689 1.197-0.225 2.18 0.732 2.732 0.956 0.553 2.041 0.465 2.732-0.732 0.689-1.195 5.047-11.865 4.668-12.084s-7.442 8.888-8.132 10.084zM10 6c0.438 0 0.864 0.037 1.281 0.109 0.438-0.549 0.928-1.154 1.405-1.728-0.852-0.246-1.752-0.381-2.686-0.381-5.607 0-10 4.729-10 10.766 0 0.371 0.016 0.742 0.049 1.103 0.049 0.551 0.54 0.955 1.084 0.908 0.551-0.051 0.957-0.535 0.908-1.086-0.027-0.302-0.041-0.615-0.041-0.925 0-4.916 3.514-8.766 8-8.766zM17.219 7.25c-0.279 0.75-0.574 1.514-0.834 2.174 1.015 1.47 1.615 3.314 1.615 5.342 0 0.316-0.015 0.635-0.043 0.943-0.050 0.551 0.355 1.037 0.905 1.088 0.030 0.002 0.061 0.004 0.092 0.004 0.511 0 0.948-0.391 0.995-0.91 0.033-0.37 0.051-0.748 0.051-1.125 0-2.954-1.053-5.59-2.781-7.516z"></path>
</symbol>
<symbol id="icon-home" viewBox="0 0 20 20">
<path d="M18.672 11h-1.672v6c0 0.445-0.194 1-1 1h-4v-6h-4v6h-4c-0.806 0-1-0.555-1-1v-6h-1.672c-0.598 0-0.47-0.324-0.060-0.748l8.024-8.032c0.195-0.202 0.451-0.302 0.708-0.312 0.257 0.010 0.513 0.109 0.708 0.312l8.023 8.031c0.411 0.425 0.539 0.749-0.059 0.749z"></path>
</symbol>
<symbol id="icon-line-graph" viewBox="0 0 20 20">
<path d="M0.69 11.331l1.363 0.338 1.026-1.611-1.95-0.482c-0.488-0.121-0.981 0.174-1.102 0.66-0.121 0.483 0.175 0.973 0.663 1.095zM18.481 11.592l-4.463 4.016-5.247-4.061c-0.1-0.076-0.215-0.133-0.338-0.162l-0.698-0.174-1.027 1.611 1.1 0.273 5.697 4.408c0.166 0.127 0.362 0.189 0.559 0.189 0.219 0 0.438-0.078 0.609-0.232l5.028-4.527c0.372-0.334 0.401-0.906 0.064-1.277s-0.911-0.4-1.284-0.064zM8.684 7.18l4.887 3.129c0.413 0.264 0.961 0.154 1.24-0.246l5.027-7.242c0.286-0.412 0.183-0.977-0.231-1.26-0.414-0.285-0.979-0.182-1.265 0.23l-4.528 6.521-4.916-3.147c-0.204-0.131-0.451-0.174-0.688-0.123-0.236 0.053-0.442 0.197-0.571 0.4l-7.497 11.767c-0.27 0.422-0.144 0.983 0.28 1.25 0.15 0.096 0.319 0.141 0.486 0.141 0.301 0 0.596-0.149 0.768-0.42l7.008-11z"></path>
</symbol>
<symbol id="icon-list" viewBox="0 0 20 20">
<path d="M14.4 9h-5.8c-0.552 0-0.6 0.447-0.6 1s0.048 1 0.6 1h5.8c0.552 0 0.6-0.447 0.6-1s-0.048-1-0.6-1zM16.4 14h-7.8c-0.552 0-0.6 0.447-0.6 1s0.048 1 0.6 1h7.8c0.552 0 0.6-0.447 0.6-1s-0.048-1-0.6-1zM8.6 6h7.8c0.552 0 0.6-0.447 0.6-1s-0.048-1-0.6-1h-7.8c-0.552 0-0.6 0.447-0.6 1s0.048 1 0.6 1zM5.4 9h-1.8c-0.552 0-0.6 0.447-0.6 1s0.048 1 0.6 1h1.8c0.552 0 0.6-0.447 0.6-1s-0.048-1-0.6-1zM5.4 14h-1.8c-0.552 0-0.6 0.447-0.6 1s0.048 1 0.6 1h1.8c0.552 0 0.6-0.447 0.6-1s-0.048-1-0.6-1zM5.4 4h-1.8c-0.552 0-0.6 0.447-0.6 1s0.048 1 0.6 1h1.8c0.552 0 0.6-0.447 0.6-1s-0.048-1-0.6-1z"></path>
</symbol>
<symbol id="icon-location" viewBox="0 0 20 20">
<path d="M19.367 18.102l-1.367-4.102h-1.5l0.833 4h-14.666l0.833-4h-1.5l-1.368 4.102c-0.347 1.044 0.268 1.898 1.368 1.898h16c1.1 0 1.715-0.854 1.367-1.898zM15 5c0-2.761-2.238-5-5-5s-5 2.239-5 5c0 4.775 5 10 5 10s5-5.225 5-10zM7.3 5.060c0-1.491 1.208-2.699 2.7-2.699s2.7 1.208 2.7 2.699c0 1.492-1.209 2.7-2.7 2.7s-2.7-1.209-2.7-2.7z"></path>
</symbol>
<symbol id="icon-log-out" viewBox="0 0 20 20">
<path d="M19 10l-6-5v3h-7v4h7v3l6-5zM3 3h8v-2h-8c-1.1 0-2 0.9-2 2v14c0 1.1 0.9 2 2 2h8v-2h-8v-14z"></path>
</symbol>
<symbol id="icon-magnifying-glass" viewBox="0 0 20 20">
<path d="M17.545 15.467l-3.779-3.779c0.57-0.935 0.898-2.035 0.898-3.21 0-3.417-2.961-6.377-6.378-6.377s-6.186 2.769-6.186 6.186c0 3.416 2.961 6.377 6.377 6.377 1.137 0 2.2-0.309 3.115-0.844l3.799 3.801c0.372 0.371 0.975 0.371 1.346 0l0.943-0.943c0.371-0.371 0.236-0.84-0.135-1.211zM4.004 8.287c0-2.366 1.917-4.283 4.282-4.283s4.474 2.107 4.474 4.474c0 2.365-1.918 4.283-4.283 4.283s-4.473-2.109-4.473-4.474z"></path>
</symbol>
<symbol id="icon-shopping-bag" viewBox="0 0 20 20">
<path d="M18.121 3.271c-0.295-0.256-1.906-1.731-2.207-1.991-0.299-0.259-0.756-0.28-1.102-0.28h-9.624c-0.345 0-0.802 0.021-1.102 0.28s-1.912 1.736-2.207 1.991c-0.297 0.256-0.543 0.643-0.464 1.192 0.079 0.551 1.89 13.661 1.937 13.973 0.046 0.311 0.318 0.557 0.648 0.564h12c0.33-0.007 0.602-0.253 0.648-0.565s1.858-13.422 1.938-13.973c0.078-0.548-0.168-0.935-0.465-1.191zM10 11.973c-3.248 0-3.943-4.596-4.087-5.543h1.837c0.276 1.381 0.904 3.744 2.25 3.744s1.975-2.363 2.25-3.744h1.838c-0.145 0.947-0.84 5.543-4.088 5.543zM3.17 4.006l1.83-2.006h10l1.83 2.006h-13.66z"></path>
</symbol>
<symbol id="icon-text-document-inverted" viewBox="0 0 20 20">
<path d="M16 1h-12c-0.553 0-1 0.447-1 1v16c0 0.552 0.447 1 1 1h12c0.553 0 1-0.448 1-1v-16c0-0.552-0.447-1-1-1zM13 15h-6v-2h6v2zM13 11h-6v-2h6v2zM13 7h-6v-2h6v2z"></path>
</symbol>
<symbol id="icon-user" viewBox="0 0 20 20">
<path d="M7.725 2.146c-1.016 0.756-1.289 1.953-1.239 2.59 0.064 0.779 0.222 1.793 0.222 1.793s-0.313 0.17-0.313 0.854c0.109 1.717 0.683 0.976 0.801 1.729 0.284 1.814 0.933 1.491 0.933 2.481 0 1.649-0.68 2.42-2.803 3.334-2.13 0.918-4.326 2.073-4.326 4.073v1h18v-1c0-2-2.197-3.155-4.328-4.072-2.123-0.914-2.801-1.684-2.801-3.334 0-0.99 0.647-0.667 0.932-2.481 0.119-0.753 0.692-0.012 0.803-1.729 0-0.684-0.314-0.854-0.314-0.854s0.158-1.014 0.221-1.793c0.065-0.817-0.398-2.561-2.3-3.096-0.333-0.34-0.558-0.881 0.466-1.424-2.24-0.105-2.761 1.067-3.954 1.929z"></path>
</symbol>
</defs>
</svg>
